<svg xmlns="http://www.w3.org/2000/svg" xmlns:xlink="http://www.w3.org/1999/xlink" width="327" zoomAndPan="magnify" viewBox="0 0 245.25 284.999983" height="380" preserveAspectRatio="xMidYMid meet" version="1.0"><defs><clipPath id="292ca9b8e5"><path d="M 0 1 L 244 1 L 244 284 L 0 284 Z M 0 1 " clip-rule="nonzero"/></clipPath><clipPath id="556bc5d0c4"><path d="M 0.00390625 282.910156 L 1.554688 0.324219 L 244.3125 1.65625 L 242.761719 284.238281 Z M 0.00390625 282.910156 " clip-rule="nonzero"/></clipPath><clipPath id="c506410098"><path d="M 122.933594 1.09375 L 243.921875 72.378906 L 243.148438 213.621094 L 121.382812 283.574219 L 0.390625 212.289062 L 1.164062 71.046875 Z M 122.933594 1.09375 " clip-rule="nonzero"/></clipPath><clipPath id="f85c1f4bc4"><path d="M 5 6 L 240 6 L 240 278 L 5 278 Z M 5 6 " clip-rule="nonzero"/></clipPath><clipPath id="cc642e5b59"><path d="M 4.925781 277.234375 L 6.414062 6.046875 L 239.378906 7.324219 L 237.894531 278.511719 Z M 4.925781 277.234375 " clip-rule="nonzero"/></clipPath><clipPath id="91cf6caa46"><path d="M 122.894531 6.785156 L 239.007812 75.195312 L 238.265625 210.738281 L 121.410156 277.875 L 5.296875 209.464844 L 6.039062 73.917969 Z M 122.894531 6.785156 " clip-rule="nonzero"/></clipPath><clipPath id="b77e809021"><path d="M 44.761719 148 L 197 148 L 197 226.570312 L 44.761719 226.570312 Z M 44.761719 148 " clip-rule="nonzero"/></clipPath><clipPath id="9c2ae2a31f"><path d="M 44.761719 127 L 51 127 L 51 146 L 44.761719 146 Z M 44.761719 127 " clip-rule="nonzero"/></clipPath></defs><g clip-path="url(#292ca9b8e5)"><g clip-path="url(#556bc5d0c4)"><g clip-path="url(#c506410098)"><path fill="#cfcfcf" d="M 0.00390625 282.910156 L 1.554688 0.324219 L 244.3125 1.65625 L 242.761719 284.238281 Z M 0.00390625 282.910156 " fill-opacity="1" fill-rule="nonzero"/></g></g></g><g clip-path="url(#f85c1f4bc4)"><g clip-path="url(#cc642e5b59)"><g clip-path="url(#91cf6caa46)"><path fill="#459299" d="M 4.925781 277.234375 L 6.414062 6.046875 L 239.378906 7.324219 L 237.894531 278.511719 Z M 4.925781 277.234375 " fill-opacity="1" fill-rule="nonzero"/></g></g></g><g clip-path="url(#b77e809021)"><path fill="#ffffff" d="M 45.507812 148.652344 C 45.117188 148.652344 44.792969 148.972656 44.792969 149.367188 L 44.792969 150.722656 C 44.792969 179.691406 61.148438 204.875 85.117188 217.589844 L 85.152344 217.589844 C 95.691406 223.164062 107.691406 226.339844 120.441406 226.339844 C 133.191406 226.339844 146.195312 222.875 157.050781 216.839844 L 157.160156 216.945312 L 157.160156 216.730469 C 180.375 203.800781 196.089844 179.011719 196.089844 150.652344 L 196.089844 149.292969 C 196.089844 148.902344 195.769531 148.578125 195.375 148.578125 L 45.507812 148.578125 Z M 149.269531 194.015625 L 123.265625 194.015625 C 122.875 194.015625 122.550781 193.691406 122.550781 193.300781 L 122.550781 175.726562 C 122.550781 175.332031 122.871094 175.011719 123.265625 175.011719 L 154.375 175.011719 C 154.839844 175.011719 155.199219 175.441406 155.089844 175.902344 C 153.804688 182.296875 152.09375 188.222656 149.949219 193.617188 C 149.84375 193.902344 149.558594 194.082031 149.269531 194.082031 L 149.269531 194.011719 Z M 160.019531 174.976562 L 186.628906 174.976562 C 187.128906 174.976562 187.488281 175.476562 187.308594 175.976562 C 184.882812 182.367188 181.597656 188.371094 177.523438 193.730469 C 177.378906 193.90625 177.167969 194.015625 176.914062 194.015625 L 155.089844 194.015625 C 154.589844 194.015625 154.234375 193.515625 154.410156 193.046875 C 156.414062 187.691406 158.054688 181.796875 159.269531 175.582031 C 159.339844 175.226562 159.625 174.976562 159.984375 174.976562 Z M 93.582031 198.195312 L 117.65625 198.195312 C 118.046875 198.195312 118.371094 198.515625 118.371094 198.910156 L 118.371094 212.519531 C 118.371094 212.910156 118.050781 213.234375 117.65625 213.234375 C 112.441406 213.234375 107.332031 213.304688 102.761719 213.304688 C 102.546875 213.304688 102.371094 213.234375 102.226562 213.089844 C 98.761719 209.410156 95.617188 204.730469 92.9375 199.195312 C 92.6875 198.695312 93.046875 198.125 93.617188 198.125 Z M 54.257812 174.976562 L 80.332031 174.976562 C 80.691406 174.976562 80.976562 175.226562 81.050781 175.582031 C 82.265625 181.832031 83.90625 187.6875 85.90625 193.046875 C 86.085938 193.515625 85.726562 194.015625 85.226562 194.015625 L 63.9375 194.015625 C 63.6875 194.015625 63.472656 193.90625 63.332031 193.730469 C 59.261719 188.335938 55.972656 182.367188 53.542969 175.976562 C 53.363281 175.511719 53.722656 174.976562 54.222656 174.976562 Z M 86.011719 174.976562 L 117.660156 174.976562 C 118.050781 174.976562 118.375 175.296875 118.375 175.691406 L 118.375 193.261719 C 118.375 193.65625 118.054688 193.980469 117.660156 193.980469 L 91.121094 193.980469 C 90.835938 193.980469 90.546875 193.800781 90.441406 193.515625 C 88.332031 188.15625 86.582031 182.191406 85.296875 175.796875 C 85.191406 175.332031 85.546875 174.90625 86.011719 174.90625 Z M 84.296875 170.191406 C 83.511719 164.867188 83.011719 159.332031 82.902344 153.582031 C 82.902344 153.152344 83.226562 152.832031 83.65625 152.832031 L 117.660156 152.832031 C 118.050781 152.832031 118.375 153.152344 118.375 153.546875 L 118.375 170.085938 C 118.375 170.476562 118.054688 170.800781 117.660156 170.800781 L 85.050781 170.800781 C 84.691406 170.800781 84.371094 170.550781 84.335938 170.195312 L 84.296875 170.195312 Z M 123.265625 217.410156 L 130.910156 217.410156 C 131.664062 217.410156 131.914062 218.375 131.304688 218.765625 C 128.765625 220.269531 126.125 221.265625 123.410156 221.730469 C 122.980469 221.800781 122.550781 221.445312 122.550781 221.015625 L 122.550781 218.195312 C 122.550781 217.800781 122.871094 217.476562 123.300781 217.476562 L 123.265625 217.40625 Z M 118.371094 218.160156 L 118.371094 221.054688 C 118.371094 221.484375 117.980469 221.839844 117.550781 221.804688 C 114.691406 221.414062 111.90625 220.414062 109.230469 218.839844 C 108.585938 218.484375 108.871094 217.484375 109.621094 217.484375 C 112.300781 217.484375 115.011719 217.484375 117.65625 217.449219 C 118.046875 217.449219 118.371094 217.769531 118.371094 218.164062 Z M 139.339844 217.550781 C 139.484375 217.40625 139.660156 217.335938 139.839844 217.335938 L 146.304688 217.335938 C 142.910156 218.660156 139.375 219.730469 135.765625 220.515625 C 136.980469 219.625 138.160156 218.625 139.335938 217.515625 L 139.335938 217.550781 Z M 137.769531 213.195312 C 133.804688 213.195312 129.015625 213.195312 123.265625 213.230469 C 122.875 213.230469 122.515625 212.910156 122.515625 212.515625 L 122.515625 198.90625 C 122.515625 198.515625 122.835938 198.191406 123.230469 198.191406 L 146.769531 198.191406 C 147.304688 198.191406 147.660156 198.761719 147.449219 199.261719 C 144.804688 204.691406 141.734375 209.335938 138.304688 212.976562 C 138.164062 213.121094 137.984375 213.191406 137.769531 213.226562 L 137.769531 213.191406 Z M 122.515625 170.082031 L 122.515625 153.542969 C 122.515625 153.152344 122.835938 152.828125 123.230469 152.828125 L 156.703125 152.828125 C 157.132812 152.828125 157.453125 153.1875 157.453125 153.578125 C 157.308594 159.332031 156.84375 164.867188 156.058594 170.1875 C 155.988281 170.542969 155.703125 170.792969 155.34375 170.792969 L 123.269531 170.792969 C 122.878906 170.792969 122.554688 170.472656 122.554688 170.078125 L 122.515625 170.078125 Z M 78.722656 153.542969 C 78.828125 159.222656 79.296875 164.726562 80.082031 169.976562 C 80.152344 170.40625 79.796875 170.796875 79.367188 170.796875 L 52.402344 170.796875 C 52.082031 170.796875 51.796875 170.582031 51.6875 170.261719 C 50.148438 164.941406 49.257812 159.332031 49.007812 153.578125 C 49.007812 153.148438 49.328125 152.828125 49.757812 152.828125 L 78.011719 152.828125 C 78.402344 152.828125 78.726562 153.148438 78.726562 153.542969 Z M 68.6875 198.195312 L 87.550781 198.195312 C 87.835938 198.195312 88.085938 198.375 88.191406 198.625 C 90.511719 203.765625 93.226562 208.375 96.226562 212.230469 C 96.582031 212.699219 96.261719 213.410156 95.65625 213.410156 C 91.371094 213.410156 88.085938 213.480469 86.367188 213.480469 C 86.222656 213.480469 86.117188 213.480469 86.011719 213.375 C 79.332031 209.695312 73.296875 204.945312 68.117188 199.410156 C 67.6875 198.945312 68.011719 198.160156 68.652344 198.160156 Z M 100.691406 217.515625 C 100.871094 217.515625 101.046875 217.585938 101.191406 217.730469 C 102.230469 218.695312 103.265625 219.589844 104.335938 220.410156 C 101.15625 219.660156 98.050781 218.730469 95.050781 217.585938 C 96.90625 217.585938 98.800781 217.585938 100.691406 217.550781 Z M 154.519531 213.445312 C 152.699219 213.300781 149.769531 213.230469 144.875 213.195312 C 144.269531 213.195312 143.949219 212.515625 144.304688 212.015625 C 147.234375 208.195312 149.878906 203.660156 152.199219 198.625 C 152.308594 198.375 152.558594 198.195312 152.84375 198.195312 L 172.238281 198.195312 C 172.878906 198.195312 173.203125 198.945312 172.773438 199.445312 C 167.632812 204.980469 161.628906 209.695312 154.949219 213.375 C 154.804688 213.445312 154.664062 213.480469 154.519531 213.480469 Z M 188.523438 170.832031 L 160.984375 170.832031 C 160.554688 170.832031 160.199219 170.441406 160.269531 170.011719 C 161.054688 164.726562 161.519531 159.226562 161.625 153.578125 C 161.625 153.1875 161.949219 152.863281 162.34375 152.863281 L 191.132812 152.863281 C 191.5625 152.863281 191.882812 153.222656 191.882812 153.617188 C 191.667969 159.367188 190.738281 164.976562 189.203125 170.296875 C 189.097656 170.617188 188.8125 170.832031 188.488281 170.832031 Z M 188.523438 170.832031 " fill-opacity="1" fill-rule="nonzero"/></g><path fill="#ffffff" d="M 119.265625 139.761719 C 119.421875 141.578125 119.445312 143.421875 119.410156 145.28125 L 121.597656 145.28125 L 121.550781 138.054688 C 121.753906 136.535156 123.351562 136.890625 122.917969 134.242188 C 122.371094 130.878906 116.285156 132.425781 117.929688 136.214844 C 118.609375 137.785156 119.042969 137.136719 119.265625 139.761719 Z M 119.265625 139.761719 " fill-opacity="1" fill-rule="nonzero"/><path fill="#ffffff" d="M 129.25 70.140625 C 130.09375 69.152344 133.359375 66.683594 133.777344 65.742188 C 134.070312 65.074219 133.808594 64.28125 134.035156 63.535156 C 134.71875 61.304688 138.566406 61.261719 139.070312 63.472656 C 139.738281 66.394531 137.859375 67.058594 135.410156 67.378906 L 125.003906 77.828125 C 124.390625 81.320312 125.324219 85.550781 124.875 88.957031 C 124.824219 89.339844 124.796875 89.65625 124.464844 89.917969 L 115.335938 98.902344 L 100.4375 99.101562 L 91.515625 108.023438 L 91.515625 125.855469 C 94.84375 128.066406 91.523438 132.945312 88.480469 130.265625 C 86.433594 128.464844 87.96875 127.058594 89.171875 125.441406 L 89.320312 106.925781 L 99.339844 96.90625 L 114.238281 96.707031 L 122.132812 88.957031 L 122.449219 77.195312 L 126.777344 72.464844 C 126.910156 71.785156 126.929688 65.960938 126.789062 65.394531 C 126.683594 64.960938 124.871094 64.738281 125.46875 62.101562 C 126.332031 58.324219 132.753906 61.089844 130.085938 64.722656 C 129.597656 65.390625 129.253906 64.785156 129.253906 65.886719 L 129.253906 70.140625 Z M 129.25 70.140625 " fill-opacity="1" fill-rule="nonzero"/><path fill="#ffffff" d="M 95.175781 145.28125 L 97.699219 145.28125 C 97.769531 134 97.40625 122.640625 97.949219 111.429688 L 103.046875 106.648438 L 127.0625 106.507812 C 131.324219 102.171875 135.558594 97.792969 139.976562 93.621094 C 140.242188 93.371094 140.464844 92.757812 140.558594 92.703125 C 141.199219 92.339844 142.539062 92.996094 143.675781 91.839844 C 144.589844 90.898438 144.597656 89.019531 143.710938 88.0625 C 142.726562 87.003906 140.871094 87.011719 139.808594 87.972656 C 138.789062 88.890625 139.316406 89.820312 139.125 90.855469 C 138.894531 92.09375 134.242188 95.234375 133.515625 96.769531 L 125.890625 104.246094 L 101.945312 104.453125 L 95.476562 110.609375 C 94.84375 122.085938 95.441406 133.75 95.175781 145.28125 Z M 95.175781 145.28125 " fill-opacity="1" fill-rule="nonzero"/><path fill="#ffffff" d="M 126.363281 129.425781 C 126.882812 134.476562 126.625 139.898438 126.40625 145.28125 L 129.105469 145.28125 C 129.117188 144.113281 129.089844 142.976562 128.988281 141.898438 C 128.960938 138.703125 128.039062 132.507812 129.039062 129.625 C 129.453125 128.429688 131.390625 127.875 129.925781 125.589844 C 127.695312 122.117188 122.457031 126.644531 126.363281 129.425781 Z M 126.363281 129.425781 " fill-opacity="1" fill-rule="nonzero"/><path fill="#ffffff" d="M 102.640625 134.484375 L 102.585938 145.28125 L 104.816406 145.28125 L 104.808594 134.484375 C 104.796875 133.636719 105.589844 133.347656 105.976562 132.632812 C 107.113281 130.542969 105.382812 128.253906 103.109375 128.648438 C 101.460938 128.933594 100.566406 130.867188 101.191406 132.371094 C 101.519531 133.160156 102.691406 133.507812 102.640625 134.484375 Z M 102.640625 134.484375 " fill-opacity="1" fill-rule="nonzero"/><path fill="#ffffff" d="M 192.105469 126.816406 L 192.105469 145.28125 L 194.613281 145.28125 L 194.71875 126.683594 C 199.488281 122.25 190.332031 119.335938 190.71875 124.617188 C 190.816406 126.007812 191.980469 126.378906 192.105469 126.816406 Z M 192.105469 126.816406 " fill-opacity="1" fill-rule="nonzero"/><path fill="#ffffff" d="M 186.332031 133.957031 L 186.378906 145.28125 L 188.632812 145.28125 C 188.527344 140.796875 188.082031 134.179688 188.59375 133.320312 C 188.796875 132.976562 189.699219 132.964844 190.003906 131.554688 C 190.722656 128.222656 185.679688 127.019531 184.820312 130.242188 C 184.171875 132.683594 186.089844 132.6875 186.332031 133.957031 Z M 186.332031 133.957031 " fill-opacity="1" fill-rule="nonzero"/><path fill="#ffffff" d="M 162.1875 117.898438 L 158.347656 121.882812 C 158.703125 124.710938 157.847656 128.820312 158.347656 131.476562 C 158.578125 132.691406 160.820312 133.152344 159.648438 135.539062 C 158.332031 138.226562 154.464844 137.03125 154.492188 134.226562 C 154.503906 132.773438 155.953125 132.460938 156.140625 131.480469 C 156.722656 128.433594 155.671875 123.792969 156.203125 120.566406 L 164.652344 111.722656 L 164.671875 83.992188 C 164.675781 83 163.566406 82.730469 163.34375 81.75 C 162.414062 77.664062 168.527344 77.144531 168.527344 80.988281 C 168.527344 82.671875 167.28125 82.746094 167.113281 83.992188 L 167.121094 112.542969 C 166.898438 113.726562 164.570312 114.621094 164.371094 116.105469 C 164.253906 116.984375 164.210938 122.238281 164.378906 122.925781 C 164.480469 123.339844 166.136719 123.464844 165.742188 125.980469 C 165.332031 128.585938 161.367188 128.753906 160.667969 126.140625 C 160.042969 123.792969 162.1875 123.070312 162.1875 122.703125 Z M 162.1875 117.898438 " fill-opacity="1" fill-rule="nonzero"/><path fill="#ffffff" d="M 83.546875 145.28125 L 83.476562 104.917969 L 95.773438 92.238281 C 96.269531 92.011719 98.890625 91.980469 99.480469 92.089844 C 100.125 92.207031 100.054688 92.707031 100.25 92.824219 C 105.445312 96.054688 106.75 87.046875 101.1875 88.328125 C 100.152344 88.570312 100.058594 89.730469 99.195312 89.898438 C 97.960938 90.136719 95.746094 89.558594 94.675781 90.046875 L 81.277344 103.546875 L 81.238281 145.28125 Z M 83.546875 145.28125 " fill-opacity="1" fill-rule="nonzero"/><path fill="#ffffff" d="M 111.441406 145.28125 L 113.621094 145.28125 L 113.589844 130.644531 C 113.558594 129.703125 114.535156 129.4375 114.914062 128.675781 C 115.945312 126.597656 114.007812 124.335938 111.878906 124.808594 C 110.886719 125.03125 109.820312 126.382812 109.777344 127.386719 C 109.703125 129.078125 111.25 129.359375 111.421875 130.644531 L 111.4375 145.28125 Z M 111.441406 145.28125 " fill-opacity="1" fill-rule="nonzero"/><path fill="#ffffff" d="M 102.105469 122.125 C 104.449219 123.472656 105.160156 121.09375 106.59375 120.902344 L 130.894531 121.058594 L 137.976562 128.246094 C 138.128906 131.886719 138.054688 135.523438 138.03125 139.152344 C 138.03125 139.523438 138.320312 139.992188 138.261719 140.246094 C 138.152344 140.75 136.484375 140.839844 136.640625 143.007812 C 136.730469 144.1875 137.371094 144.9375 138.179688 145.28125 L 140.382812 145.28125 C 141.445312 144.835938 142.21875 143.71875 141.816406 141.96875 C 141.589844 140.984375 140.636719 140.851562 140.488281 139.730469 C 139.988281 136.007812 140.9375 131.261719 140.445312 127.421875 L 131.988281 118.863281 L 106.589844 118.738281 C 105.121094 118.542969 104.996094 116.644531 102.824219 117.128906 C 100.617188 117.621094 99.949219 120.894531 102.101562 122.128906 L 102.105469 122.128906 Z M 102.105469 122.125 " fill-opacity="1" fill-rule="nonzero"/><path fill="#ffffff" d="M 142.019531 122.539062 C 142.324219 122.710938 146.804688 127.191406 146.949219 127.507812 L 147.265625 139.953125 C 146.914062 141.5 145.476562 141.414062 145.726562 143.53125 C 145.816406 144.320312 146.203125 144.902344 146.722656 145.28125 L 149.96875 145.28125 C 150.679688 144.753906 151.132812 143.824219 150.917969 142.476562 C 150.730469 141.285156 149.636719 141.105469 149.550781 140.003906 L 149.570312 119.410156 C 149.648438 119.007812 152.476562 116.015625 152.863281 115.839844 C 153.835938 115.402344 154.804688 116.207031 156.023438 115.433594 C 158.765625 113.691406 156.507812 109.449219 153.476562 110.695312 C 151.882812 111.351562 152.128906 112.867188 151.492188 113.925781 C 150.929688 114.871094 147.265625 117.710938 147.09375 118.308594 L 147.09375 124.210938 L 143.671875 120.933594 C 144.574219 113.878906 135.289062 118.125 139.261719 121.753906 C 140.261719 122.667969 141.476562 122.234375 142.023438 122.542969 L 142.023438 122.539062 Z M 142.019531 122.539062 " fill-opacity="1" fill-rule="nonzero"/><path fill="#ffffff" d="M 89.183594 141.90625 L 89.144531 145.28125 L 91.34375 145.28125 L 91.378906 141.914062 C 91.539062 141.101562 92.96875 140.351562 92.992188 139.171875 C 93.019531 137.800781 91.59375 136.289062 90.214844 136.34375 C 88.074219 136.429688 86.8125 138.777344 88.015625 140.601562 C 88.398438 141.175781 89.0625 141.285156 89.183594 141.90625 Z M 89.183594 141.90625 " fill-opacity="1" fill-rule="nonzero"/><path fill="#ffffff" d="M 178.4375 127.144531 L 178.402344 145.28125 L 180.574219 145.28125 L 180.632812 128.246094 L 191.6875 117.066406 C 192.125 116.101562 191.632812 114.441406 191.839844 113.375 C 192.070312 112.167969 193.546875 112.085938 193.1875 109.816406 C 192.976562 108.472656 191.371094 107.554688 190.117188 107.792969 C 188.257812 108.148438 187.460938 110.101562 188.195312 111.792969 C 188.511719 112.523438 189.429688 112.679688 189.589844 113.136719 C 189.753906 113.617188 189.710938 115.488281 189.492188 115.972656 L 178.4375 127.148438 Z M 178.4375 127.144531 " fill-opacity="1" fill-rule="nonzero"/><path fill="#ffffff" d="M 86.859375 77.433594 C 86.808594 77.527344 86.324219 77.570312 86.414062 77.949219 L 86.375 91.355469 L 77.246094 100.609375 L 77.097656 110.019531 C 78.769531 110.796875 79.058594 113.285156 77.640625 114.453125 C 74.585938 116.96875 71.152344 112.058594 74.640625 110.019531 L 74.691406 99.976562 L 83.910156 90.53125 L 83.96875 78.230469 C 83.84375 77.570312 82.582031 77.203125 82.371094 75.96875 C 81.835938 72.855469 86.148438 71.519531 87.46875 74.183594 C 88.222656 75.699219 87.523438 76.226562 86.863281 77.433594 Z M 86.859375 77.433594 " fill-opacity="1" fill-rule="nonzero"/><path fill="#ffffff" d="M 104.085938 114.246094 C 102.332031 112.257812 104.28125 108.984375 106.941406 109.867188 C 107.949219 110.203125 108.335938 111.25 109.335938 111.324219 L 129.605469 111.253906 L 139.707031 101.300781 C 139.605469 99.695312 139.976562 97.996094 141.804688 97.644531 C 144.625 97.101562 146.328125 100.417969 144.214844 102.257812 C 143.1875 103.15625 142.183594 102.492188 141.175781 103.0625 L 130.707031 113.449219 L 109.335938 113.492188 C 108.066406 113.660156 107.761719 115.1875 106.050781 115.164062 C 105.535156 115.15625 104.40625 114.605469 104.085938 114.246094 Z M 104.085938 114.246094 " fill-opacity="1" fill-rule="nonzero"/><path fill="#ffffff" d="M 173.226562 93.25 L 173.152344 124.632812 C 173.335938 125.996094 174.914062 126.140625 174.832031 127.90625 C 174.671875 131.421875 169.46875 131.265625 169.414062 127.863281 C 169.386719 126.179688 170.929688 125.695312 170.992188 125.175781 L 170.832031 93.195312 C 167.742188 91.328125 170.148438 86.804688 173.542969 88.5625 C 175.320312 89.484375 175.191406 92.589844 173.226562 93.25 Z M 173.226562 93.25 " fill-opacity="1" fill-rule="nonzero"/><g clip-path="url(#9c2ae2a31f)"><path fill="#ffffff" d="M 46.386719 132.570312 L 46.386719 145.28125 L 48.8125 145.28125 L 48.8125 132.835938 C 48.644531 132.121094 49.394531 132.03125 49.550781 131.792969 C 52.496094 127.324219 45.359375 125.367188 44.980469 129.5625 C 44.78125 131.753906 46.273438 131.851562 46.386719 132.570312 Z M 46.386719 132.570312 " fill-opacity="1" fill-rule="nonzero"/></g><path fill="#ffffff" d="M 53.828125 143.777344 C 54.34375 144.277344 54.851562 144.777344 55.359375 145.28125 L 58.5 145.28125 L 56.386719 143.140625 C 56.15625 142.632812 56.117188 137.949219 56.25 137.25 C 56.394531 136.5 57.257812 136.210938 57.492188 135.480469 C 58.792969 131.433594 52.546875 130.492188 52.375 134.222656 C 52.285156 136.183594 53.570312 136.230469 53.765625 137.25 C 54.121094 139.109375 53.464844 141.816406 53.828125 143.777344 Z M 53.828125 143.777344 " fill-opacity="1" fill-rule="nonzero"/><path fill="#ffffff" d="M 129.703125 94.46875 C 128.90625 95.304688 126.742188 96.796875 126.21875 97.710938 C 125.613281 98.773438 126.046875 100.496094 124.324219 101.03125 C 121.574219 101.886719 119.445312 99.0625 121.160156 96.769531 C 122.304688 95.238281 124.074219 96.375 124.726562 95.964844 C 125.148438 95.699219 130.3125 90.539062 130.480469 90.171875 L 130.742188 79.457031 C 131.085938 78.34375 133.453125 76.972656 133.785156 76.171875 C 134.035156 75.566406 133.347656 74.945312 134.3125 73.691406 C 137.027344 70.175781 141.472656 75.664062 137.734375 77.667969 C 136.789062 78.175781 135.941406 77.65625 135.296875 77.953125 C 135.160156 78.019531 133.296875 79.886719 133.234375 80.023438 C 132.398438 81.867188 133.613281 88.4375 133.035156 90.804688 C 131.882812 91.972656 130.832031 93.296875 129.703125 94.46875 Z M 129.703125 94.46875 " fill-opacity="1" fill-rule="nonzero"/><path fill="#ffffff" d="M 96.511719 64.707031 C 98.015625 64.367188 99.386719 65.027344 99.769531 66.550781 C 99.929688 67.195312 99.773438 67.917969 100.027344 68.488281 C 100.292969 69.09375 101.820312 69.921875 102.023438 70.605469 L 102.023438 80.648438 C 101.914062 81.023438 96.941406 86.027344 96.585938 86.191406 C 95.714844 86.585938 94.648438 86.128906 93.765625 86.386719 C 93.261719 86.539062 92.882812 87.335938 92.277344 87.640625 C 89.574219 88.988281 86.75 85.230469 89.445312 83.164062 C 92.140625 81.097656 92.910156 84.808594 95.300781 84.078125 C 96.140625 83.824219 98.941406 80.328125 99.832031 79.550781 C 100 78.976562 100 72.277344 99.832031 71.707031 C 99.757812 71.460938 98.457031 70.101562 98.238281 70.003906 C 97.378906 69.625 96.464844 70.144531 95.5 69.449219 C 93.777344 68.195312 94.496094 65.167969 96.515625 64.707031 Z M 96.511719 64.707031 " fill-opacity="1" fill-rule="nonzero"/><path fill="#ffffff" d="M 115.3125 68 L 115.246094 87.558594 C 115.136719 88.425781 113.761719 88.992188 113.464844 89.636719 C 113.105469 90.410156 113.824219 91.175781 112.9375 92.386719 C 111.171875 94.8125 107.261719 93.035156 108.242188 89.882812 C 108.992188 87.476562 112.6875 89.074219 113.070312 86.207031 C 113.769531 81 112.511719 74.261719 113.070312 68.886719 C 112.867188 67.347656 109.957031 66.4375 112.109375 63.835938 C 114.628906 60.785156 119.175781 65.972656 115.3125 67.996094 Z M 115.3125 68 " fill-opacity="1" fill-rule="nonzero"/><path fill="#ffffff" d="M 69.34375 83.367188 C 73.191406 82.53125 74.1875 88.296875 70.316406 88.746094 C 69.820312 88.804688 69.410156 88.429688 68.882812 88.652344 C 68.472656 88.832031 66.847656 90.683594 66.734375 91.195312 L 66.671875 105.6875 C 66.847656 106.609375 69.105469 107.171875 68.113281 109.59375 C 66.914062 112.515625 62.019531 111.277344 63.230469 107.449219 C 63.484375 106.644531 64.542969 106.339844 64.492188 105.421875 L 64.484375 90.042969 C 64.6875 88.988281 66.980469 87.730469 67.355469 86.878906 C 67.835938 85.792969 67.234375 83.824219 69.34375 83.367188 Z M 69.34375 83.367188 " fill-opacity="1" fill-rule="nonzero"/><path fill="#ffffff" d="M 178.597656 99.5625 C 178.527344 99.449219 177.96875 99.3125 177.699219 98.960938 C 175.519531 96.089844 179.785156 92.832031 181.910156 95.5625 C 183.851562 98.058594 181.09375 98.957031 180.855469 100.199219 C 180.640625 101.34375 180.621094 113.460938 180.988281 114.046875 C 181.136719 114.28125 181.679688 114.441406 182.011719 114.949219 C 184.492188 118.683594 177.890625 120.824219 177.300781 117.191406 C 176.894531 114.699219 178 115.171875 178.511719 114.046875 C 178.8125 113.386719 178.964844 100.183594 178.597656 99.558594 Z M 178.597656 99.5625 " fill-opacity="1" fill-rule="nonzero"/><path fill="#ffffff" d="M 65.945312 133.914062 C 68.375 131.617188 70.785156 129.320312 73.136719 126.945312 C 72.785156 124.78125 73.703125 122.925781 76.136719 123.097656 C 78.214844 123.242188 79.109375 125.714844 77.929688 127.375 C 76.976562 128.710938 75.792969 128.003906 74.753906 128.585938 C 74.210938 128.890625 66.367188 136.757812 65.96875 137.367188 C 65.234375 138.496094 65.949219 139.738281 64.617188 140.683594 C 60.90625 143.324219 58.230469 136.386719 62.765625 135.785156 C 63.292969 135.714844 63.796875 136.046875 64.195312 135.886719 C 64.734375 135.667969 65.507812 134.324219 65.945312 133.914062 Z M 65.945312 133.914062 " fill-opacity="1" fill-rule="nonzero"/><path fill="#ffffff" d="M 108.289062 82.316406 C 111.253906 86.835938 104.296875 88.609375 103.738281 84.800781 C 103.441406 82.796875 104.507812 82.917969 104.960938 81.9375 C 105.210938 81.390625 105.28125 70.988281 105.09375 70.007812 C 104.886719 68.921875 103.421875 68.859375 103.738281 66.730469 C 104.246094 63.328125 110.1875 63.964844 108.820312 68.234375 C 108.605469 68.890625 107.898438 69.1875 107.710938 69.59375 C 107.460938 70.140625 107.378906 80.53125 107.566406 81.535156 C 107.679688 82.160156 108.148438 82.101562 108.289062 82.3125 Z M 108.289062 82.316406 " fill-opacity="1" fill-rule="nonzero"/><path fill="#ffffff" d="M 155.617188 145.28125 L 158.613281 145.28125 C 159.003906 144.960938 159.367188 144.617188 159.859375 144.523438 C 161.570312 144.199219 164.035156 144.796875 165.84375 144.46875 C 166.339844 144.363281 166.398438 143.742188 166.671875 143.515625 C 167.949219 142.457031 170.078125 139.914062 171.097656 139.292969 C 172.179688 138.640625 173.023438 139.128906 173.683594 137.492188 C 174.9375 134.382812 171.125 132.585938 169.316406 134.496094 C 167.71875 136.183594 169.246094 137.699219 168.929688 138.203125 C 168.804688 138.398438 168.117188 138.714844 167.804688 139.023438 C 166.796875 140.023438 165.917969 141.15625 164.867188 142.121094 L 159.90625 142.328125 C 157.25 137.410156 152.265625 142.988281 155.613281 145.28125 Z M 155.617188 145.28125 " fill-opacity="1" fill-rule="nonzero"/><path fill="#ffffff" d="M 151.664062 88.433594 C 149.796875 90.339844 146.074219 88.3125 147.300781 85.304688 C 148.070312 83.417969 149.835938 84.207031 150.929688 83.722656 C 151.066406 83.664062 152.925781 81.804688 152.988281 81.664062 C 153.472656 80.589844 152.84375 78.628906 153.183594 77.472656 C 153.398438 76.753906 155.113281 75.773438 155.449219 75.070312 C 155.769531 74.398438 155.613281 73.386719 156.234375 72.695312 C 158.296875 70.394531 162.070312 72.859375 160.597656 75.824219 C 159.304688 78.421875 156.625 75.988281 155.742188 78.105469 C 155.261719 79.261719 155.890625 81.125 155.542969 82.296875 C 155.296875 83.121094 152.84375 84.6875 152.4375 85.527344 C 152.109375 86.207031 152.742188 87.328125 151.660156 88.433594 Z M 151.664062 88.433594 " fill-opacity="1" fill-rule="nonzero"/><path fill="#ffffff" d="M 79.082031 83.917969 C 78.597656 84.734375 79.472656 89.148438 78.882812 90.445312 C 78.527344 91.230469 76.210938 92.707031 75.871094 93.472656 C 75.433594 94.460938 76.136719 95.464844 75.050781 96.492188 C 71.550781 99.804688 68.175781 93 72.4375 91.9375 C 73.136719 91.761719 73.671875 92.132812 74.078125 91.96875 C 74.265625 91.890625 76.433594 89.652344 76.5 89.429688 L 76.71875 84.257812 C 71.4375 79.222656 81.085938 76.683594 80.613281 81.734375 C 80.46875 83.316406 79.339844 83.484375 79.082031 83.917969 Z M 79.082031 83.917969 " fill-opacity="1" fill-rule="nonzero"/><path fill="#ffffff" d="M 69.617188 116.578125 C 72.914062 115.847656 74.398438 120.554688 71.132812 121.691406 C 70.453125 121.929688 69.976562 121.691406 69.617188 121.796875 C 69.238281 121.910156 64.144531 126.945312 63.910156 127.351562 C 63.289062 128.429688 63.960938 129.632812 62.542969 130.648438 C 60.121094 132.382812 57.0625 129.660156 58.589844 127.242188 C 59.898438 125.167969 61.476562 126.296875 62.148438 125.882812 C 62.539062 125.640625 67.496094 120.722656 67.640625 120.359375 C 67.808594 119.9375 67.46875 119.558594 67.515625 119.15625 C 67.632812 118.109375 68.554688 116.8125 69.609375 116.578125 Z M 69.617188 116.578125 " fill-opacity="1" fill-rule="nonzero"/><path fill="#ffffff" d="M 70.496094 145.28125 C 70.496094 144.785156 70.503906 144.292969 70.773438 143.816406 C 70.917969 143.5625 74.644531 139.835938 74.910156 139.71875 C 76.035156 139.222656 77.234375 140.117188 78.164062 138.308594 C 79.246094 136.203125 77.34375 133.917969 75.105469 134.414062 C 74.480469 134.554688 73.601562 135.363281 73.324219 135.9375 C 72.800781 137.007812 73.453125 137.664062 73.007812 138.351562 C 72.808594 138.65625 69.007812 142.460938 68.746094 142.613281 C 67.734375 143.1875 66.40625 142.605469 65.609375 144.140625 C 65.40625 144.527344 65.304688 144.910156 65.273438 145.28125 Z M 70.496094 145.28125 " fill-opacity="1" fill-rule="nonzero"/><path fill="#ffffff" d="M 159.503906 96.816406 C 159.351562 97.066406 159.34375 102.101562 159.449219 102.65625 C 159.59375 103.414062 160.460938 103.699219 160.691406 104.429688 C 161.957031 108.460938 156.101562 109.277344 155.609375 105.933594 C 155.296875 103.796875 156.757812 103.742188 156.96875 102.652344 C 157.136719 101.773438 157.105469 98.132812 156.996094 97.160156 C 156.925781 96.554688 156.011719 96.578125 155.726562 95.675781 C 154.277344 91.132812 161.558594 90.371094 160.800781 95.230469 C 160.59375 96.554688 159.691406 96.496094 159.503906 96.816406 Z M 159.503906 96.816406 " fill-opacity="1" fill-rule="nonzero"/><path fill="#ffffff" d="M 63.285156 118.347656 C 61.9375 119.667969 59.394531 119.179688 58.835938 117.363281 C 58.636719 116.71875 58.835938 116.023438 58.574219 115.429688 C 58.480469 115.21875 55.503906 112.230469 55.300781 112.117188 C 54.265625 111.535156 53.003906 112.257812 52.007812 111.019531 C 50.226562 108.8125 52.617188 105.453125 55.523438 106.953125 C 57.265625 107.851562 56.445312 109.378906 56.933594 110.484375 C 57.023438 110.679688 59.746094 113.414062 59.933594 113.519531 C 61.046875 114.148438 62.09375 113.3125 63.253906 114.59375 C 64.15625 115.589844 64.28125 117.375 63.285156 118.351562 Z M 63.285156 118.347656 " fill-opacity="1" fill-rule="nonzero"/><path fill="#ffffff" d="M 152.496094 103.984375 C 154.96875 106.171875 151.976562 110.207031 149.148438 108.289062 C 145.996094 106.148438 149.800781 101.601562 152.496094 103.984375 Z M 152.496094 103.984375 " fill-opacity="1" fill-rule="nonzero"/><path fill="#ffffff" d="M 140.710938 109.710938 C 144.082031 109.152344 145.0625 114.789062 141.4375 115.148438 C 137.929688 115.496094 137.347656 110.269531 140.710938 109.710938 Z M 140.710938 109.710938 " fill-opacity="1" fill-rule="nonzero"/><path fill="#ffffff" d="M 53.148438 119.046875 C 57.203125 118.148438 57.683594 124.585938 53.734375 124.332031 C 50.398438 124.113281 50.390625 119.660156 53.148438 119.046875 Z M 53.148438 119.046875 " fill-opacity="1" fill-rule="nonzero"/><path fill="#ffffff" d="M 140.863281 82.128906 C 138.128906 79.589844 142.386719 75.546875 144.777344 78.355469 C 147.007812 80.980469 143.28125 84.371094 140.863281 82.128906 Z M 140.863281 82.128906 " fill-opacity="1" fill-rule="nonzero"/><path fill="#ffffff" d="M 143.347656 69.136719 C 146.035156 66.507812 149.828125 70.726562 147.109375 73.039062 C 144.277344 75.445312 141.117188 71.3125 143.347656 69.136719 Z M 143.347656 69.136719 " fill-opacity="1" fill-rule="nonzero"/><path fill="#ffffff" d="M 150.03125 95.722656 C 154.542969 94.695312 154.578125 102.050781 149.765625 100.808594 C 147.460938 100.214844 147.609375 96.269531 150.03125 95.722656 Z M 150.03125 95.722656 " fill-opacity="1" fill-rule="nonzero"/><path fill="#ffffff" d="M 92.941406 73.21875 C 97.921875 72.078125 97.132812 79.621094 92.730469 78.25 C 90.449219 77.539062 90.574219 73.757812 92.941406 73.21875 Z M 92.941406 73.21875 " fill-opacity="1" fill-rule="nonzero"/><path fill="#ffffff" d="M 119.855469 67.996094 C 123.625 67.34375 124.207031 73.070312 120.542969 73.375 C 117.425781 73.632812 116.597656 68.558594 119.855469 67.996094 Z M 119.855469 67.996094 " fill-opacity="1" fill-rule="nonzero"/><path fill="#ffffff" d="M 55.519531 99.605469 C 57.785156 97.34375 61.855469 100.675781 59.414062 103.359375 C 56.933594 106.085938 53.121094 102 55.519531 99.605469 Z M 55.519531 99.605469 " fill-opacity="1" fill-rule="nonzero"/></svg>