<svg xmlns="http://www.w3.org/2000/svg" xmlns:xlink="http://www.w3.org/1999/xlink" width="2031" zoomAndPan="magnify" viewBox="0 0 1523.25 1535.999932" height="2048" preserveAspectRatio="xMidYMid meet" version="1.0"><defs><clipPath id="6e83616db2"><path d="M 288 0.378906 L 1235 0.378906 L 1235 525 L 288 525 Z M 288 0.378906 " clip-rule="nonzero"/></clipPath><clipPath id="d01b0bfb24"><path d="M 633.382812 1391.078125 L 777.3125 1391.078125 L 777.3125 1535.007812 L 633.382812 1535.007812 Z M 633.382812 1391.078125 " clip-rule="nonzero"/></clipPath><clipPath id="a97f2fd144"><path d="M 655.871094 1391.078125 L 754.820312 1391.078125 C 767.242188 1391.078125 777.3125 1401.144531 777.3125 1413.566406 L 777.3125 1512.519531 C 777.3125 1524.9375 767.242188 1535.007812 754.820312 1535.007812 L 655.871094 1535.007812 C 643.449219 1535.007812 633.382812 1524.9375 633.382812 1512.519531 L 633.382812 1413.566406 C 633.382812 1401.144531 643.449219 1391.078125 655.871094 1391.078125 Z M 655.871094 1391.078125 " clip-rule="nonzero"/></clipPath></defs><g clip-path="url(#6e83616db2)"><path fill="#406078" d="M 301.328125 524.214844 C 308.34375 524.214844 314.164062 518.566406 314.164062 511.375 L 314.164062 411.574219 C 314.164062 363.128906 353.539062 323.753906 401.984375 323.753906 L 443.070312 323.753906 C 445.640625 323.925781 448.378906 324.097656 450.945312 324.097656 C 453.511719 324.097656 456.253906 324.097656 458.820312 323.753906 L 499.90625 323.753906 C 520.960938 323.753906 540.820312 331.113281 556.742188 344.640625 C 553.832031 356.109375 552.289062 368.089844 552.289062 380.417969 L 552.289062 511.375 C 552.289062 518.394531 557.9375 524.214844 565.128906 524.214844 C 572.320312 524.214844 577.96875 518.566406 577.96875 511.375 L 577.96875 380.417969 C 577.96875 314.679688 631.378906 261.097656 697.285156 261.097656 L 751.210938 261.097656 C 754.636719 261.441406 757.886719 261.441406 761.3125 261.441406 C 764.734375 261.441406 768.160156 261.441406 771.410156 261.097656 L 825.335938 261.097656 C 891.074219 261.097656 944.65625 314.507812 944.65625 380.417969 L 944.65625 511.375 C 944.65625 518.394531 950.304688 524.214844 957.492188 524.214844 C 964.683594 524.214844 970.332031 518.566406 970.332031 511.375 L 970.332031 380.417969 C 970.332031 368.089844 968.792969 356.109375 965.882812 344.640625 C 981.804688 331.113281 1001.660156 323.753906 1022.71875 323.753906 L 1063.800781 323.753906 C 1066.371094 323.925781 1069.109375 324.097656 1071.675781 324.097656 C 1074.246094 324.097656 1076.984375 324.097656 1079.550781 323.753906 L 1120.636719 323.753906 C 1169.082031 323.753906 1208.457031 363.128906 1208.457031 411.574219 L 1208.457031 511.375 C 1208.457031 518.394531 1214.105469 524.214844 1221.296875 524.214844 C 1228.484375 524.214844 1234.136719 518.566406 1234.136719 511.375 L 1234.136719 411.574219 C 1234.136719 355.082031 1192.535156 308.003906 1138.269531 299.617188 C 1160.351562 280.785156 1174.390625 252.882812 1174.390625 221.726562 C 1174.390625 165.234375 1128.339844 119.183594 1071.847656 119.183594 C 1015.355469 119.183594 969.304688 165.234375 969.304688 221.726562 C 969.304688 252.882812 983.34375 280.785156 1005.253906 299.617188 C 987.792969 302.355469 971.359375 309.03125 956.980469 319.304688 C 935.582031 273.59375 891.242188 240.898438 838.6875 236.105469 C 871.042969 212.308594 891.929688 174.132812 891.929688 130.996094 C 891.929688 59.097656 833.382812 0.550781 761.484375 0.550781 C 689.582031 0.550781 631.035156 59.097656 631.035156 130.996094 C 631.035156 174.132812 652.09375 212.308594 684.277344 236.105469 C 631.894531 240.898438 587.382812 273.59375 565.984375 319.304688 C 551.605469 309.03125 535.171875 302.355469 517.710938 299.617188 C 539.792969 280.785156 553.660156 252.882812 553.660156 221.726562 C 553.660156 165.234375 507.609375 119.183594 451.117188 119.183594 C 394.625 119.183594 348.574219 165.234375 348.574219 221.726562 C 348.574219 252.882812 362.613281 280.785156 384.695312 299.617188 C 330.429688 308.003906 288.832031 355.082031 288.832031 411.574219 L 288.832031 511.375 C 288.832031 518.394531 294.480469 524.214844 301.667969 524.214844 Z M 994.300781 221.726562 C 994.300781 179.269531 1028.878906 144.863281 1071.164062 144.863281 C 1113.445312 144.863281 1148.027344 179.441406 1148.027344 221.726562 C 1148.027344 261.953125 1117.042969 294.992188 1077.667969 298.246094 L 1064.488281 298.246094 C 1025.113281 294.824219 994.128906 261.785156 994.128906 221.726562 Z M 656.03125 131.167969 C 656.03125 73.304688 703.105469 26.226562 760.96875 26.226562 C 818.832031 26.226562 865.90625 73.304688 865.90625 131.167969 C 865.90625 185.945312 823.625 231.140625 770.042969 235.761719 L 751.894531 235.761719 C 698.3125 231.140625 656.03125 186.117188 656.03125 131.167969 Z M 373.910156 221.726562 C 373.910156 179.269531 408.492188 144.863281 450.773438 144.863281 C 493.058594 144.863281 527.636719 179.441406 527.636719 221.726562 C 527.636719 261.953125 496.652344 294.992188 457.28125 298.246094 L 444.097656 298.246094 C 404.726562 294.824219 373.738281 261.785156 373.738281 221.726562 Z M 373.910156 221.726562 " fill-opacity="1" fill-rule="nonzero"/></g><path fill="#406078" d="M 1483.730469 358.164062 C 1456.679688 344.46875 1423.300781 355.421875 1409.605469 382.472656 L 1314.421875 569.238281 C 1311.855469 567.355469 1309.117188 565.816406 1306.375 564.445312 C 1292.339844 557.597656 1276.589844 556.570312 1261.867188 561.535156 L 994.300781 653.121094 C 954.414062 666.816406 921.03125 694.378906 900.144531 731.183594 L 862.140625 798.117188 L 839.714844 787.164062 C 833.722656 784.253906 826.363281 786.476562 822.9375 792.296875 L 761.140625 901.175781 L 699.339844 792.296875 C 695.917969 786.476562 688.726562 784.082031 682.5625 787.164062 L 660.136719 798.117188 L 622.132812 731.183594 C 601.25 694.550781 567.867188 666.816406 527.980469 653.121094 L 260.414062 561.535156 C 245.691406 556.570312 229.769531 557.425781 215.902344 564.445312 C 212.992188 565.816406 210.253906 567.527344 207.859375 569.238281 L 112.675781 382.472656 C 98.980469 355.421875 65.597656 344.640625 38.550781 358.164062 C 13.042969 371 1.574219 400.789062 11.847656 427.496094 L 121.75 712.867188 C 133.21875 742.480469 157.015625 765.421875 187.144531 775.863281 L 435.367188 860.773438 L 454.539062 899.289062 L 436.394531 908.191406 C 430.0625 911.273438 427.492188 918.976562 430.574219 925.3125 L 542.703125 1154.019531 C 544.929688 1158.472656 549.550781 1161.210938 554.171875 1161.210938 C 556.054688 1161.210938 557.9375 1160.867188 559.820312 1159.839844 C 566.15625 1156.757812 568.722656 1149.054688 565.640625 1142.722656 L 459.164062 925.484375 L 683.25 815.578125 L 746.761719 927.367188 L 624.875 1142.035156 C 621.449219 1148.199219 623.503906 1156.074219 629.667969 1159.496094 C 635.828125 1162.921875 643.703125 1160.867188 647.128906 1154.703125 L 839.542969 815.578125 L 1063.632812 925.484375 L 957.152344 1142.722656 C 954.070312 1149.054688 956.636719 1156.757812 962.972656 1159.839844 C 964.855469 1160.695312 966.738281 1161.210938 968.621094 1161.210938 C 973.414062 1161.210938 977.867188 1158.640625 980.089844 1154.019531 L 1092.21875 925.3125 C 1095.300781 918.976562 1092.734375 911.273438 1086.398438 908.191406 L 1068.253906 899.289062 L 1087.425781 860.773438 L 1335.648438 775.863281 C 1365.78125 765.59375 1389.574219 742.652344 1401.042969 712.867188 L 1510.949219 427.496094 C 1521.21875 400.789062 1509.75 371.003906 1484.242188 358.164062 Z M 455.566406 844.339844 C 454.027344 841.257812 451.460938 839.03125 448.207031 838.003906 L 195.019531 751.382812 C 172.078125 743.507812 153.933594 726.046875 145.203125 703.449219 L 35.300781 418.078125 C 29.820312 403.699219 35.984375 387.777344 49.679688 380.929688 C 64.230469 373.570312 82.035156 379.390625 89.566406 393.941406 L 189.539062 589.953125 C 188.34375 592.519531 187.144531 595.089844 186.289062 597.828125 C 181.324219 612.550781 182.179688 628.46875 189.199219 642.335938 C 196.046875 656.375 208.027344 666.816406 222.75 671.953125 L 398.046875 731.867188 C 404.726562 734.09375 412.085938 730.667969 414.3125 723.824219 C 416.535156 716.976562 413.113281 709.785156 406.265625 707.558594 L 230.96875 647.644531 C 213.847656 641.824219 204.777344 623.164062 210.597656 606.042969 C 213.507812 597.828125 219.328125 590.980469 227.203125 587.214844 C 235.078125 583.277344 243.976562 582.761719 252.195312 585.671875 L 519.765625 677.257812 C 553.660156 688.898438 582.246094 712.523438 599.878906 743.679688 L 637.027344 809.246094 L 477.136719 887.648438 Z M 1486.640625 418.25 L 1376.734375 703.621094 C 1368.003906 726.21875 1349.859375 743.679688 1326.917969 751.554688 L 1073.730469 838.175781 C 1070.476562 839.203125 1067.910156 841.601562 1066.371094 844.511719 L 1044.800781 887.820312 L 884.910156 809.417969 L 922.058594 743.851562 C 939.691406 712.695312 968.277344 689.070312 1002.175781 677.429688 L 1269.742188 585.84375 C 1277.960938 582.933594 1286.859375 583.617188 1294.734375 587.382812 C 1302.609375 591.320312 1308.429688 598 1311.339844 606.214844 C 1317.160156 623.335938 1308.089844 641.992188 1290.96875 647.8125 L 1115.671875 707.730469 C 1108.996094 709.957031 1105.402344 717.316406 1107.625 723.992188 C 1109.851562 730.667969 1117.214844 734.265625 1123.890625 732.039062 L 1299.1875 672.125 C 1329.660156 661.679688 1345.921875 628.46875 1335.480469 598 C 1334.621094 595.257812 1333.425781 592.691406 1332.226562 590.125 L 1432.199219 394.113281 C 1439.5625 379.5625 1457.535156 373.742188 1472.085938 381.101562 C 1485.78125 387.949219 1491.945312 404.042969 1486.46875 418.25 Z M 1486.640625 418.25 " fill-opacity="1" fill-rule="nonzero"/><g clip-path="url(#d01b0bfb24)"><g clip-path="url(#a97f2fd144)"><path fill="#a6a6a6" d="M 633.382812 1391.078125 L 777.3125 1391.078125 L 777.3125 1535.007812 L 633.382812 1535.007812 Z M 633.382812 1391.078125 " fill-opacity="1" fill-rule="nonzero"/></g></g></svg>